<?xml version="1.0" standalone="no"?>
<!DOCTYPE svg PUBLIC "-//W3C//DTD SVG 20010904//EN"
 "http://www.w3.org/TR/2001/REC-SVG-20010904/DTD/svg10.dtd">
<svg version="1.0" xmlns="http://www.w3.org/2000/svg"
 width="368.000000pt" height="368.000000pt" viewBox="0 0 368.000000 368.000000"
 preserveAspectRatio="xMidYMid meet">
<metadata>
Created by potrace 1.14, written by Peter Selinger 2001-2017
</metadata>
<g transform="translate(0.000000,368.000000) scale(0.100000,-0.100000)"
fill="#000000" stroke="none">
<path d="M1025 3600 c4 -6 11 -7 17 -4 7 4 8 2 4 -5 -4 -6 -12 -9 -17 -6 -5 4
-17 1 -26 -4 -10 -6 -13 -11 -7 -11 6 0 11 -7 11 -15 0 -11 -4 -12 -14 -4 -18
16 -16 4 3 -15 10 -10 11 -16 4 -16 -7 0 -9 -7 -6 -16 3 -8 2 -12 -4 -9 -6 3
-7 -1 -4 -10 5 -13 9 -13 23 -3 14 12 15 11 2 -4 -7 -10 -10 -18 -5 -18 5 -1
-1 -9 -13 -19 -19 -16 -20 -20 -7 -25 10 -4 13 -2 8 6 -4 7 -3 8 5 4 6 -4 9
-12 5 -17 -3 -5 -1 -16 6 -24 9 -11 7 -13 -12 -9 -13 2 -17 2 -10 -2 6 -3 10
-10 6 -15 -3 -5 2 -9 11 -9 15 0 15 -1 0 -16 -13 -14 -14 -19 -3 -25 10 -7 10
-10 -1 -21 -11 -11 -13 -11 -6 1 5 9 4 12 -3 8 -5 -4 -8 -15 -6 -25 3 -9 -2
-26 -11 -37 -16 -20 -16 -20 -6 2 15 31 14 41 -3 18 -17 -25 -15 -73 4 -85 8
-6 12 -10 8 -10 -3 0 -14 -3 -24 -7 -12 -4 -15 -3 -10 5 4 7 2 12 -3 12 -14 0
-14 -13 -2 -26 6 -5 1 -17 -14 -30 -13 -12 -26 -19 -29 -16 -3 2 -4 -5 -1 -16
3 -16 0 -19 -13 -15 -15 6 -16 5 -2 -12 8 -10 11 -16 5 -13 -5 3 -16 -1 -24
-9 -12 -13 -11 -15 10 -9 13 3 18 3 11 0 -6 -3 -10 -10 -6 -15 3 -5 2 -8 -3
-7 -14 5 -57 -40 -60 -63 -2 -13 1 -18 9 -13 7 4 8 3 4 -5 -4 -6 -12 -8 -18
-5 -8 5 -9 1 -5 -11 6 -14 3 -16 -12 -12 -20 5 -22 -7 -7 -32 6 -10 5 -12 -2
-7 -13 8 -16 -14 -4 -30 4 -5 3 -6 -3 -1 -20 16 -27 6 -9 -15 13 -16 14 -19 2
-10 -9 8 -19 9 -22 4 -3 -6 2 -13 11 -16 14 -6 14 -9 -5 -27 -12 -11 -22 -26
-22 -34 0 -8 -6 -15 -12 -15 -9 0 -8 -4 2 -11 12 -9 10 -10 -8 -6 -17 4 -21 2
-13 -7 7 -8 6 -17 -1 -26 -8 -13 -9 -13 -5 1 3 9 -1 16 -8 16 -7 0 -11 -6 -8
-14 3 -8 -2 -13 -13 -13 -18 -1 -18 -2 1 -16 20 -16 20 -16 -2 -10 -12 4 -24
2 -29 -5 -4 -8 -3 -9 4 -5 7 4 12 3 12 -2 0 -5 -9 -12 -20 -15 -11 -3 -19 -11
-18 -18 3 -12 -1 -14 -34 -18 -9 -1 -8 -4 2 -11 11 -7 11 -10 2 -10 -7 0 -11
-4 -7 -9 3 -5 0 -13 -6 -17 -8 -4 -9 -3 -5 4 4 7 2 12 -3 12 -6 0 -11 -9 -11
-19 0 -11 -4 -23 -10 -26 -5 -3 -10 -15 -10 -26 0 -13 -4 -18 -12 -13 -8 5 -9
2 -4 -11 5 -15 4 -16 -9 -5 -13 11 -14 10 -9 -5 6 -14 4 -16 -7 -10 -11 7 -11
5 1 -10 10 -13 11 -16 2 -11 -9 6 -12 3 -10 -10 2 -14 -2 -18 -17 -16 -11 2
-17 1 -13 -4 4 -4 2 -14 -5 -22 -9 -13 -9 -14 1 -8 18 11 14 -5 -5 -20 -16
-12 -16 -15 -3 -25 12 -9 11 -10 -7 -6 -13 3 -26 0 -30 -5 -3 -7 -1 -8 5 -4 7
4 12 2 12 -3 0 -10 -14 -15 -33 -12 -5 1 -6 -3 -2 -9 3 -6 11 -7 17 -4 7 5 8
2 4 -5 -5 -7 -14 -10 -21 -7 -9 3 -12 -5 -11 -30 1 -19 -2 -34 -7 -34 -4 0 -6
-4 -3 -9 4 -5 0 -12 -6 -14 -10 -4 -10 -6 0 -6 7 -1 11 -5 7 -11 -3 -5 -12 -7
-20 -4 -14 6 -15 -12 -2 -33 4 -6 2 -15 -4 -19 -8 -4 -9 -3 -5 4 4 7 2 12 -4
12 -7 0 -10 -6 -7 -14 3 -8 1 -17 -6 -20 -7 -3 -1 -3 13 0 18 4 21 3 11 -4 -7
-5 -11 -15 -7 -21 5 -7 1 -9 -8 -5 -9 3 -16 2 -16 -4 0 -6 6 -13 13 -15 7 -4
6 -6 -4 -6 -10 -1 -16 -9 -15 -23 1 -15 -4 -22 -13 -20 -9 2 -11 -3 -7 -14 5
-13 4 -14 -7 -6 -11 9 -13 7 -13 -11 1 -15 -4 -22 -17 -21 -14 2 -15 -1 -5
-13 9 -12 9 -17 -3 -25 -11 -8 -10 -9 4 -4 12 4 16 2 11 -5 -4 -6 0 -16 7 -21
11 -8 10 -9 -3 -4 -10 3 -20 1 -23 -4 -4 -6 -1 -10 5 -10 6 0 8 -5 5 -10 -4
-6 -10 -8 -15 -5 -12 7 -19 -30 -9 -48 6 -10 5 -18 -1 -22 -5 -3 -10 -11 -10
-16 0 -6 5 -7 11 -3 6 3 3 -5 -6 -20 -17 -25 -16 -26 1 -27 16 0 15 -2 -4 -9
-12 -5 -22 -12 -22 -15 0 -4 4 -3 10 0 10 6 15 -10 10 -30 -2 -5 -2 -18 -2
-28 0 -11 -4 -15 -11 -11 -9 5 -9 3 0 -6 10 -11 9 -16 -5 -27 -16 -12 -15 -12
3 -6 17 6 18 4 8 -8 -10 -12 -10 -18 -1 -27 15 -15 -3 -16 -20 -2 -9 7 -9 7
-2 -2 14 -17 13 -41 -2 -32 -7 4 -8 3 -4 -5 4 -6 11 -9 16 -6 5 3 11 1 14 -4
4 -5 1 -13 -5 -17 -8 -5 -9 -3 -4 6 5 9 4 11 -3 6 -9 -5 -9 -13 -2 -26 7 -13
7 -21 -2 -26 -7 -4 -8 -3 -4 4 4 7 4 12 -1 12 -4 0 -13 -11 -20 -25 -6 -14 -7
-23 -2 -19 5 3 9 -2 9 -10 0 -8 -4 -18 -10 -21 -5 -3 -10 -12 -10 -18 0 -7 4
-6 10 3 5 8 10 10 10 4 0 -5 -4 -14 -9 -20 -4 -5 -11 -22 -15 -37 -5 -21 -4
-27 5 -21 8 4 9 3 5 -5 -6 -9 -11 -9 -22 0 -13 10 -13 8 -5 -15 6 -14 7 -26 2
-26 -5 0 -7 -10 -3 -22 3 -14 2 -19 -6 -14 -7 4 -12 2 -12 -3 0 -6 5 -11 11
-11 6 0 8 -9 4 -22 -7 -23 -7 -23 10 -3 16 19 16 19 3 -5 -7 -14 -11 -31 -10
-37 2 -7 -4 -13 -12 -13 -8 0 -18 -5 -22 -12 -4 -7 -3 -8 4 -4 17 10 16 -56 0
-73 -7 -8 -8 -11 -2 -8 15 9 49 -29 34 -38 -5 -3 -7 -11 -4 -17 4 -7 2 -8 -4
-4 -7 4 -12 2 -12 -4 0 -6 -4 -8 -10 -5 -6 4 -7 -1 -3 -11 4 -12 3 -15 -5 -10
-9 5 -9 1 -2 -18 9 -25 -1 -43 -18 -32 -5 3 -8 -8 -7 -24 1 -17 -2 -30 -7 -30
-5 0 -7 -4 -4 -9 4 -5 1 -11 -6 -13 -6 -2 -12 -12 -14 -21 -1 -9 2 -15 7 -11
8 5 13 -9 10 -29 -1 -4 -2 -19 -3 -32 -2 -18 -5 -21 -15 -13 -10 8 -12 7 -7
-6 3 -9 10 -16 14 -16 4 0 10 -9 13 -21 4 -16 3 -18 -9 -8 -16 13 -19 -2 -3
-18 8 -8 4 -15 -12 -27 -13 -9 -18 -16 -12 -16 6 0 13 -9 16 -19 4 -15 1 -18
-12 -13 -13 5 -14 3 -4 -9 6 -8 13 -18 14 -24 2 -5 8 -9 14 -8 7 2 10 -10 9
-27 -1 -16 1 -29 5 -28 29 3 39 -4 33 -24 -3 -14 -2 -19 6 -14 9 5 9 0 2 -20
-10 -25 -9 -26 6 -13 16 13 16 12 4 -11 -13 -24 -12 -24 6 -10 18 15 18 14 2
-11 -17 -26 -15 -39 6 -39 6 0 4 5 -4 10 -13 8 -13 10 1 10 13 0 16 -9 15 -40
-1 -26 1 -37 8 -30 6 6 15 3 25 -9 9 -10 25 -21 36 -23 11 -2 19 -9 18 -14 -1
-5 16 -9 37 -8 22 0 39 -2 38 -5 -2 -20 4 -22 17 -5 8 10 15 15 14 9 -3 -22 2
-29 11 -15 6 10 10 11 10 3 0 -7 5 -13 11 -13 5 0 8 4 4 9 -3 5 0 13 6 17 8 4
9 3 5 -4 -8 -13 1 -15 49 -13 24 2 27 0 15 -10 -13 -9 -12 -10 3 -5 10 3 21 6
23 6 3 0 3 4 0 8 -8 14 31 7 50 -9 12 -9 15 -10 10 -1 -6 9 -1 11 18 8 14 -3
30 -7 36 -11 5 -3 10 -2 10 3 0 5 7 9 15 9 8 0 15 -4 15 -9 0 -5 9 -4 20 2 15
8 20 8 20 -1 0 -9 3 -9 14 0 11 9 15 8 20 -5 6 -15 8 -15 28 2 12 11 18 14 15
8 -4 -7 0 -17 8 -24 13 -11 14 -10 9 4 -8 20 9 21 26 1 8 -10 17 -12 24 -6 8
7 16 4 24 -10 11 -17 16 -18 28 -9 11 10 14 10 14 0 0 -8 9 -11 24 -8 16 3 23
1 19 -8 -2 -6 1 -15 7 -19 6 -3 9 -1 8 6 -2 6 3 14 11 17 9 3 11 0 7 -9 -4 -8
0 -5 8 5 15 19 21 13 17 -19 -1 -5 6 -1 14 9 11 14 15 16 15 5 0 -12 2 -12 10
1 9 13 10 13 10 0 0 -13 1 -13 10 0 7 11 10 11 10 2 0 -8 5 -10 13 -5 20 12
39 12 34 0 -5 -12 78 -15 107 -4 7 3 19 1 27 -4 9 -5 23 -2 38 7 13 9 20 11
17 5 -11 -18 5 -13 21 7 8 9 12 12 9 6 -3 -7 1 -17 9 -24 12 -10 13 -8 10 9
-3 19 -1 20 17 10 16 -9 19 -8 13 2 -6 9 -3 10 9 6 14 -6 17 -3 12 10 -6 17
-5 17 8 0 12 -15 14 -16 20 -2 5 13 9 13 26 3 17 -11 22 -10 30 2 6 10 10 11
10 3 0 -7 5 -13 11 -13 5 0 7 6 3 13 -5 8 -2 8 9 -2 15 -12 17 -11 17 4 0 14
3 13 21 -6 16 -18 19 -20 15 -6 -5 14 -2 16 11 9 9 -5 24 -7 34 -5 11 3 19 0
19 -7 0 -10 3 -10 15 0 12 10 14 8 10 -12 -4 -20 -3 -21 8 -7 12 16 42 15 31
-2 -3 -5 0 -9 5 -9 6 0 11 5 11 11 0 8 6 7 17 -2 15 -12 16 -12 8 1 -8 13 -7
13 8 1 14 -11 20 -11 32 -1 10 9 15 9 15 1 0 -6 5 -11 11 -11 5 0 8 4 4 9 -3
5 0 13 6 17 8 4 9 3 5 -4 -4 -6 4 -16 16 -23 20 -11 21 -10 11 3 -10 12 -10
15 2 15 8 0 15 -5 15 -11 0 -6 5 -4 10 4 5 8 10 10 10 4 0 -7 7 -15 16 -18 8
-3 13 -2 10 3 -7 10 19 23 28 13 12 -11 36 -10 36 1 0 7 5 5 10 -3 9 -13 10
-13 10 0 0 13 1 13 10 0 9 -13 10 -13 10 0 0 13 1 13 10 0 9 -13 11 -13 20 0
6 9 13 11 18 5 11 -15 54 -15 48 0 -3 9 6 12 31 11 19 -1 37 2 39 6 3 5 14 8
25 8 11 0 18 4 15 9 -6 10 46 7 62 -3 6 -3 14 -1 18 5 4 7 3 9 -4 5 -6 -3 -14
-1 -18 6 -4 7 -4 10 1 6 4 -4 15 -2 23 5 13 9 14 9 8 0 -5 -9 0 -13 13 -13 12
0 21 5 21 12 0 6 7 3 16 -8 8 -10 13 -14 10 -7 -4 6 -2 14 4 18 5 3 10 2 10
-3 0 -10 36 -9 46 1 4 4 13 2 21 -5 10 -8 17 -8 26 1 9 10 8 11 -5 6 -10 -4
-18 -3 -18 3 0 10 44 7 61 -4 4 -2 14 2 22 11 13 13 16 13 21 -1 5 -14 9 -14
22 -3 21 17 44 20 44 6 0 -6 7 -2 16 9 8 10 13 14 10 7 -4 -6 -2 -14 4 -18 5
-3 10 2 10 11 0 16 2 16 20 -1 20 -18 21 -18 14 0 -5 13 -4 16 5 11 6 -4 19
-2 28 6 12 9 15 9 9 1 -4 -7 -3 -13 1 -13 5 0 15 6 22 13 11 9 13 9 7 -1 -4
-6 -3 -12 3 -12 5 0 12 6 14 13 4 9 6 9 6 0 1 -7 6 -13 12 -13 5 0 8 4 5 8 -9
15 55 6 66 -9 8 -11 9 -10 4 4 -5 15 -2 17 15 12 16 -6 20 -4 14 6 -6 11 -5
11 5 2 7 -6 19 -9 28 -6 9 4 13 2 9 -4 -8 -12 11 -12 30 0 6 4 13 1 16 -5 3
-10 7 -10 20 1 14 11 17 11 17 0 0 -8 6 -5 15 7 10 13 13 14 10 3 -5 -12 1
-16 24 -16 27 0 28 2 13 14 -15 11 -14 12 8 4 14 -5 24 -14 22 -21 -1 -6 2 -9
8 -5 6 3 8 11 5 16 -4 5 -1 9 4 9 6 0 11 -5 11 -11 0 -8 5 -7 16 2 13 10 17
10 24 -1 7 -12 12 -11 30 5 17 15 20 16 15 3 -7 -17 9 -19 32 -5 6 4 15 3 18
-3 5 -8 11 -8 20 0 8 7 19 9 25 5 6 -4 18 1 26 11 9 11 13 14 10 7 -4 -6 -2
-14 4 -18 5 -3 10 -1 10 5 0 8 6 8 20 0 16 -9 18 -8 14 5 -4 8 -1 15 5 15 6 0
11 -5 11 -12 0 -6 9 -1 20 12 11 13 20 19 20 14 0 -6 -6 -16 -12 -23 -11 -11
-9 -11 10 -2 12 7 20 16 17 22 -9 14 2 11 18 -6 13 -13 16 -13 21 1 4 10 2 13
-6 8 -7 -5 -8 -3 -4 5 5 7 14 10 20 8 7 -3 13 1 13 9 0 7 -5 11 -11 8 -6 -3
-4 0 4 8 8 7 15 20 15 28 0 8 8 15 17 15 9 0 20 4 25 9 4 5 3 6 -4 2 -7 -4
-13 -5 -13 -1 0 3 12 10 26 15 16 7 23 14 18 22 -5 8 0 7 11 -2 13 -10 16 -11
11 -2 -5 8 -1 21 10 33 17 18 17 20 -2 34 -16 13 -16 14 -1 9 12 -4 17 -1 17
11 0 9 -5 13 -11 9 -6 -3 -4 5 6 19 15 24 15 26 -2 36 -13 8 -14 10 -3 11 10
0 7 5 -7 15 -22 15 -22 52 0 38 5 -3 7 -1 3 5 -3 5 0 13 6 16 7 3 2 3 -12 -1
-22 -5 -23 -4 -11 11 12 14 11 16 -10 17 -13 0 -18 3 -11 6 6 2 12 12 12 21 0
15 -2 15 -10 2 -6 -9 -10 -10 -10 -3 0 7 8 17 18 22 9 6 12 11 5 11 -7 0 -10
6 -7 14 3 8 0 17 -5 21 -6 3 -8 11 -5 17 4 7 2 8 -5 4 -8 -6 -9 -12 -2 -20 8
-9 7 -13 -4 -13 -8 0 -13 3 -10 5 3 3 -1 12 -8 20 -9 13 -9 14 1 8 6 -4 12 -4
13 1 0 4 2 16 4 25 2 12 -2 15 -13 11 -10 -4 -13 -2 -8 5 5 8 2 10 -8 6 -9 -3
-16 -11 -16 -17 0 -6 -3 -7 -6 -4 -4 4 -1 13 6 22 8 10 9 15 1 15 -6 0 -11 7
-11 15 0 8 -11 17 -25 21 -14 3 -25 11 -25 18 0 6 -5 4 -10 -4 -6 -10 -10 -11
-10 -2 0 6 -5 12 -11 12 -5 0 -8 -4 -5 -9 4 -5 -2 -8 -11 -7 -9 2 -19 8 -21
14 -2 7 -7 10 -11 8 -4 -3 -8 2 -8 11 0 12 5 11 19 -7 10 -12 18 -17 18 -12 0
6 -5 14 -10 17 -6 4 -8 11 -4 16 3 5 2 9 -3 8 -4 -1 -16 -1 -27 0 -16 1 -17 3
-5 18 13 15 12 15 -6 6 -15 -9 -22 -8 -33 5 -12 15 -13 15 -9 1 3 -9 -1 -16
-9 -16 -7 0 -11 4 -8 9 5 8 -10 12 -35 9 -8 -2 -10 2 -5 10 5 8 3 10 -5 5 -7
-5 -10 -15 -6 -25 4 -10 -1 -8 -15 7 -21 22 -36 30 -25 13 3 -5 1 -12 -5 -16
-5 -3 -10 1 -10 9 0 9 -5 16 -11 16 -5 0 -7 -6 -3 -12 4 -7 -3 -4 -15 6 -19
17 -21 17 -15 3 5 -15 3 -16 -20 -7 -17 6 -26 6 -26 -1 0 -6 -7 -6 -20 1 -15
8 -18 8 -14 -3 3 -8 -2 -14 -10 -14 -8 0 -13 4 -10 9 7 11 -7 10 -25 -1 -9 -6
-21 -5 -33 2 -15 10 -21 9 -28 -3 -9 -13 -10 -13 -10 0 0 9 -3 11 -8 5 -11
-16 -44 -18 -54 -3 -8 10 -9 9 -5 -4 3 -9 -1 -19 -9 -22 -9 -3 -12 -1 -9 4 8
13 -5 13 -25 0 -11 -7 -21 -2 -38 18 -17 19 -20 21 -13 6 7 -15 7 -21 -3 -21
-6 0 -13 10 -14 21 0 11 -6 22 -12 24 -5 2 -8 8 -4 13 3 5 -1 9 -8 9 -12 0
-17 12 -20 58 -1 6 -5 12 -9 12 -5 0 -5 8 -2 18 6 15 5 16 -12 2 -17 -14 -18
-14 -6 8 7 14 8 22 1 22 -5 0 -10 -5 -10 -11 0 -5 -5 -7 -11 -3 -8 4 -3 12 12
20 22 12 22 13 4 14 -17 0 -17 2 -5 10 14 9 7 14 -13 11 -5 -1 -5 3 -2 9 4 6
13 9 20 6 7 -2 12 1 10 7 -11 42 -18 56 -29 50 -6 -4 -5 1 3 10 11 15 11 17
-2 17 -8 0 -18 7 -21 16 -5 12 -3 14 7 8 7 -5 6 -2 -3 6 -9 9 -14 22 -12 30 3
8 1 12 -3 8 -4 -4 -14 0 -23 8 -11 11 -12 18 -3 27 15 15 14 30 -1 21 -9 -5
-9 -3 1 9 11 14 11 18 -3 23 -9 3 -13 11 -9 17 4 6 1 7 -7 2 -10 -6 -9 -11 5
-22 11 -7 14 -13 8 -13 -13 0 -43 33 -43 48 0 7 -5 12 -11 12 -5 0 -7 -5 -3
-12 4 -7 3 -8 -5 -4 -6 4 -9 11 -6 16 3 4 2 10 -2 13 -5 2 -2 2 5 1 9 -3 10 1
4 14 -5 9 -8 27 -7 39 1 15 -3 19 -13 16 -12 -5 -12 -2 -2 18 12 22 12 23 -4
9 -16 -13 -18 -12 -14 7 2 13 -5 29 -17 38 -11 9 -13 14 -5 10 10 -4 10 -2 -2
8 -12 9 -14 17 -7 24 8 8 7 13 -2 18 -8 6 -10 4 -4 -6 8 -12 6 -12 -8 0 -18
15 -23 26 -7 16 6 -4 10 5 10 20 0 16 -4 24 -10 20 -13 -8 -42 14 -34 26 3 5
-1 9 -8 9 -9 0 -9 3 2 10 13 8 13 10 -2 10 -9 0 -20 9 -23 20 -3 11 -11 20
-17 20 -5 0 -8 7 -4 15 3 8 -2 18 -11 23 -14 8 -13 10 2 15 9 4 13 12 10 17
-5 8 -11 7 -21 -1 -12 -10 -13 -8 -6 12 5 13 7 30 4 38 -3 9 0 11 9 6 8 -5 7
0 -3 11 -10 11 -16 30 -13 42 2 12 0 22 -6 22 -5 0 -9 5 -9 11 0 5 4 8 9 5 5
-3 11 1 15 9 3 8 0 17 -6 21 -7 5 -8 2 -3 -6 6 -9 4 -11 -4 -6 -9 6 -9 12 3
25 9 10 13 21 9 26 -5 4 -2 5 5 1 11 -6 11 -11 0 -23 -12 -15 -11 -15 9 -2 12
7 19 16 15 19 -4 3 -8 10 -9 15 0 6 -3 25 -6 43 -3 18 -10 39 -17 47 -8 10 -8
15 1 21 8 5 10 3 4 -7 -7 -12 -5 -12 6 -1 11 11 12 14 1 21 -11 6 -10 10 4 15
16 6 15 8 -2 28 -19 20 -19 21 6 14 14 -3 19 -3 12 0 -6 3 -10 9 -7 14 3 5 -2
16 -11 24 -11 11 -12 16 -3 16 8 0 5 7 -7 16 -13 11 -14 14 -3 11 9 -3 16 1
16 9 0 9 -6 13 -16 9 -11 -4 -10 0 5 16 10 12 13 19 7 15 -7 -4 -13 -3 -13 3
0 5 5 11 11 13 6 2 5 14 -5 32 -8 16 -13 33 -10 38 3 4 1 8 -4 8 -6 0 -13 7
-16 16 -5 14 -4 15 9 4 13 -11 14 -10 9 4 -3 9 -13 16 -21 16 -8 0 -12 4 -8
10 3 5 13 6 23 3 16 -6 16 -6 0 10 -9 9 -23 17 -30 18 -7 0 -4 4 7 9 11 5 14
9 6 9 -11 1 -11 4 0 18 11 14 11 15 1 9 -10 -6 -13 -3 -10 10 2 11 -3 25 -12
32 -13 12 -13 13 2 9 14 -5 17 8 8 33 -1 3 -2 9 -1 14 1 5 -4 4 -12 -2 -12
-10 -13 -6 -7 28 5 25 3 43 -3 47 -5 3 -7 2 -4 -3 3 -6 1 -16 -4 -24 -7 -12
-8 -11 -6 5 1 11 6 26 10 33 8 12 2 16 -17 13 -5 -1 -4 5 3 13 11 13 10 17 -5
23 -16 6 -16 7 2 14 15 6 16 8 3 8 -23 1 -33 31 -11 32 11 1 8 4 -8 9 -14 4
-20 8 -14 9 7 1 14 8 17 15 4 11 1 13 -11 9 -15 -6 -16 -5 -2 12 12 15 12 17
1 10 -11 -6 -13 -4 -8 9 6 14 3 17 -9 12 -11 -4 -14 0 -12 16 2 12 -3 23 -12
25 -13 4 -13 3 0 -7 13 -10 13 -11 0 -7 -8 2 -14 12 -12 22 2 12 -1 15 -10 9
-9 -5 -8 -2 2 11 14 17 13 18 -2 12 -10 -3 -20 -1 -24 5 -4 6 -3 8 4 4 6 -3
13 -2 17 4 3 5 -1 10 -11 10 -14 0 -15 2 -3 17 8 10 9 14 2 10 -6 -4 -14 -3
-18 3 -3 5 -2 10 4 10 6 0 7 7 4 17 -5 12 -3 14 8 8 12 -8 12 -6 0 8 -16 20
-25 23 -15 5 4 -7 3 -10 -1 -5 -15 13 -15 47 -1 53 8 3 13 14 11 25 -2 11 0
17 6 14 16 -11 10 7 -8 22 -10 7 -13 13 -8 12 26 -3 28 2 6 18 -22 15 -23 17
-7 29 12 8 14 14 6 19 -9 6 -9 10 1 16 16 10 19 31 5 41 -6 4 -4 13 5 24 11
14 11 16 0 10 -10 -7 -12 -3 -6 14 5 15 3 20 -3 16 -6 -3 -14 -1 -18 5 -4 8
-3 9 4 5 7 -4 12 -2 12 4 0 6 5 8 10 5 6 -3 10 -1 10 4 0 6 -7 11 -16 11 -13
0 -14 3 -5 14 8 10 9 16 1 21 -6 3 -7 11 -4 17 4 6 -2 8 -17 4 -13 -3 -18 -3
-11 0 20 9 14 27 -9 21 -17 -5 -18 -3 -7 10 12 15 11 15 -10 4 -16 -8 -22 -18
-18 -29 5 -13 2 -12 -9 2 -13 17 -15 18 -15 3 0 -9 -7 -17 -16 -17 -9 0 -12
-5 -8 -12 5 -8 2 -9 -10 -5 -13 5 -19 1 -23 -13 -5 -17 -8 -18 -21 -8 -13 11
-15 10 -9 -4 7 -21 -14 -40 -32 -28 -16 9 -43 2 -36 -10 3 -4 -2 -11 -11 -14
-8 -3 -13 -2 -9 3 4 8 -16 8 -35 1 -3 -1 -9 -2 -13 -1 -5 1 -6 -3 -2 -9 5 -8
12 -7 23 2 15 12 15 11 4 -4 -7 -9 -22 -15 -33 -13 -10 2 -19 0 -19 -6 0 -5
-5 -9 -11 -9 -5 0 -7 6 -3 13 6 10 4 10 -7 0 -16 -15 -33 -17 -24 -3 3 6 -1 7
-9 4 -9 -3 -14 -9 -12 -13 4 -6 -14 -6 -57 -2 -5 1 -5 7 -1 14 4 6 -2 4 -14
-7 -20 -17 -22 -18 -28 -2 -5 14 -9 15 -15 4 -7 -10 -9 -10 -9 1 0 11 -4 9
-15 -5 -8 -10 -14 -14 -13 -9 3 9 -7 17 -14 14 -19 -7 -58 -4 -55 5 3 7 -3 12
-13 12 -10 0 -16 -5 -14 -11 3 -6 -6 -11 -18 -12 -18 -2 -20 0 -8 7 12 8 10 9
-7 7 -11 -2 -29 -9 -39 -17 -15 -13 -16 -13 -9 -1 6 11 4 13 -9 8 -10 -4 -15
-3 -11 3 6 10 -8 14 -34 10 -8 -1 -18 4 -22 12 -7 10 -9 10 -9 0 0 -10 -3 -10
-14 0 -8 7 -12 16 -10 19 2 3 -3 6 -11 6 -8 0 -11 -5 -8 -11 4 -6 -4 -2 -17 9
-13 11 -20 15 -17 8 4 -6 3 -14 -3 -18 -5 -3 -10 1 -10 9 0 8 -5 18 -12 22 -8
5 -9 2 -4 -11 6 -18 6 -18 -16 1 -12 10 -29 26 -38 34 -8 9 -12 11 -7 6 4 -6
7 -14 7 -19 0 -10 -22 11 -39 38 l-13 20 7 -20 c4 -13 -3 -10 -20 12 -17 22
-31 30 -42 26 -11 -4 -14 -3 -9 5 5 8 -2 12 -19 12 -15 0 -24 -4 -20 -10z m69
-18 c3 -5 -1 -9 -9 -9 -8 0 -12 4 -9 9 3 4 7 8 9 8 2 0 6 -4 9 -8z m1071 -50
c-3 -3 -11 0 -18 7 -9 10 -8 11 6 5 10 -3 15 -9 12 -12z m9 -140 c3 -5 -1 -9
-9 -9 -8 0 -12 4 -9 9 3 4 7 8 9 8 2 0 6 -4 9 -8z m-1329 -432 c-3 -5 -11 -10
-16 -10 -6 0 -7 5 -4 10 3 6 11 10 16 10 6 0 7 -4 4 -10z m1530 -538 c-3 -3
-11 0 -18 7 -9 10 -8 11 6 5 10 -3 15 -9 12 -12z m-2138 -647 c0 -8 -4 -12 -9
-9 -5 3 -6 10 -3 15 9 13 12 11 12 -6z m2293 -209 c0 -3 -4 -8 -10 -11 -5 -3
-10 -1 -10 4 0 6 5 11 10 11 6 0 10 -2 10 -4z m26 -92 c1 -9 0 -13 -4 -10 -3
4 -7 14 -8 22 -1 9 0 13 4 10 3 -4 7 -14 8 -22z m-2429 -489 c0 -8 -4 -12 -9
-9 -5 3 -6 10 -3 15 9 13 12 11 12 -6z m3518 -505 c-3 -5 -12 -10 -18 -10 -7
0 -6 4 3 10 19 12 23 12 15 0z m-5 -86 c0 -8 -19 -13 -24 -6 -3 5 1 9 9 9 8 0
15 -2 15 -3z m-350 -198 c0 -3 -4 -8 -10 -11 -5 -3 -10 -1 -10 4 0 6 5 11 10
11 6 0 10 -2 10 -4z m-2443 -81 c0 -8 -4 -12 -9 -9 -5 3 -6 10 -3 15 9 13 12
11 12 -6z"/>
<path d="M2165 3320 c3 -5 8 -10 11 -10 2 0 4 5 4 10 0 6 -5 10 -11 10 -5 0
-7 -4 -4 -10z"/>
<path d="M2160 3200 c0 -5 5 -10 10 -10 6 0 10 5 10 10 0 6 -4 10 -10 10 -5 0
-10 -4 -10 -10z"/>
<path d="M2455 1721 c-3 -5 -2 -12 3 -15 5 -3 9 1 9 9 0 17 -3 19 -12 6z"/>
<path d="M2645 1320 c3 -5 8 -10 11 -10 2 0 4 5 4 10 0 6 -5 10 -11 10 -5 0
-7 -4 -4 -10z"/>
<path d="M2843 915 c0 -8 4 -12 9 -9 5 3 6 10 3 15 -9 13 -12 11 -12 -6z"/>
<path d="M3626 538 c3 -5 10 -6 15 -3 13 9 11 12 -6 12 -8 0 -12 -4 -9 -9z"/>
</g>
</svg>
